<?xml version="1.0" encoding="UTF-8"?>
<svg version="1.1" xmlns="http://www.w3.org/2000/svg" width="512" height="512">
<path d="M0 0 C139.26 0 278.52 0 422 0 C422 129.36 422 258.72 422 392 C342.14 392.33 262.28 392.66 180 393 C178.515 401.415 178.515 401.415 177 410 C176.06365134 413.55166732 175.12582252 416.92305416 173.9375 420.375 C173.64149902 421.24439209 173.34549805 422.11378418 173.04052734 423.00952148 C166.32255031 441.91602384 155.69905787 457.45681004 142 472 C141.3503125 472.72574219 140.700625 473.45148438 140.03125 474.19921875 C123.59059353 491.80969116 100.8672404 502.61939777 78 509 C77.31599121 509.19352051 76.63198242 509.38704102 75.92724609 509.58642578 C56.71227511 514.714663 31.09894732 514.38583989 12 509 C11.20158691 508.77957031 10.40317383 508.55914062 9.58056641 508.33203125 C-13.59676471 501.73114132 -32.4930039 490.49083546 -50 474 C-50.72574219 473.3503125 -51.45148437 472.700625 -52.19921875 472.03125 C-69.80969116 455.59059353 -80.61939777 432.8672404 -87 410 C-87.19352051 409.31599121 -87.38704102 408.63198242 -87.58642578 407.92724609 C-92.714663 388.71227511 -92.38583989 363.09894732 -87 344 C-86.77957031 343.20158691 -86.55914062 342.40317383 -86.33203125 341.58056641 C-79.7347753 318.41599507 -68.50129967 299.48558772 -52 282 C-51.32710937 281.26265625 -50.65421875 280.5253125 -49.9609375 279.765625 C-36.49883598 265.54722565 -19.19162961 255.8218611 -1 249 C-0.505 125.745 -0.505 125.745 0 0 Z " fill="#EDF4FE" transform="translate(90,0)"/>
<path d="M0 0 C139.26 0 278.52 0 422 0 C422 50.16 422 100.32 422 152 C282.74 152 143.48 152 0 152 C0 101.84 0 51.68 0 0 Z " fill="#E63950" transform="translate(90,0)"/>
<path d="M0 0 C69.96 0 139.92 0 212 0 C212 79.2 212 158.4 212 240 C142.04 240 72.08 240 0 240 C0 200.4 0 160.8 0 120 C-9.9 120 -19.8 120 -30 120 C-30 110.1 -30 100.2 -30 90 C-20.1 90 -10.2 90 0 90 C0 80.1 0 70.2 0 60 C-9.9 60 -19.8 60 -30 60 C-30 50.1 -30 40.2 -30 30 C-20.1 30 -10.2 30 0 30 C0 20.1 0 10.2 0 0 Z " fill="#D5E8FE" transform="translate(300,152)"/>
<path d="M0 0 C0.89332031 0.42796875 1.78664062 0.8559375 2.70703125 1.296875 C27.5067604 13.92735222 45.93071213 36.33403467 54.5703125 62.61328125 C62.85109062 89.32997129 60.75114432 118.18010623 47.984375 143.15771484 C35.39122496 166.72614495 14.48406466 186.37436814 -11.22851562 194.72363281 C-38.98846055 203.13815262 -67.96234892 202.52595115 -94.11035156 189.03173828 C-119.76091808 175.02666153 -138.31853513 152.9047085 -147 125 C-147.21172852 124.32018066 -147.42345703 123.64036133 -147.64160156 122.93994141 C-155.42447086 96.71130183 -151.41890421 69.0616269 -139 45 C-125.77776426 21.15712582 -104.31574253 2.98974009 -78.3125 -5.3125 C-76.21136796 -5.88623144 -74.10726912 -6.44923648 -72 -7 C-71.0821875 -7.29777344 -70.164375 -7.59554688 -69.21875 -7.90234375 C-46.91408391 -14.40787136 -20.54916851 -10.19779364 0 0 Z " fill="#D5E7FD" transform="translate(181,282)"/>
<path d="M0 0 C69.3 0 138.6 0 210 0 C210 50.16 210 100.32 210 152 C140.7 152 71.4 152 0 152 C0 101.84 0 51.68 0 0 Z " fill="#FF6C6C" transform="translate(90,0)"/>
<path d="M0 0 C12.65793224 10.56352232 23.51219389 22.22129149 31.98046875 36.38671875 C32.5827832 37.38324463 32.5827832 37.38324463 33.19726562 38.39990234 C39.93996145 49.75702818 44.4425219 61.68445419 47.98046875 74.38671875 C48.17398926 75.07604492 48.36750977 75.76537109 48.56689453 76.47558594 C53.59781472 95.51331831 53.27488292 120.46540638 47.98046875 139.38671875 C47.76003906 140.18658203 47.53960937 140.98644531 47.3125 141.81054688 C40.71104034 164.98551239 29.46972185 183.88140252 12.98046875 201.38671875 C12.33078125 202.11246094 11.68109375 202.83820313 11.01171875 203.5859375 C-5.42893772 221.19640991 -28.15229085 232.00611652 -51.01953125 238.38671875 C-51.70354004 238.58023926 -52.38754883 238.77375977 -53.09228516 238.97314453 C-72.30725614 244.10138175 -97.92058393 243.77255864 -117.01953125 238.38671875 C-117.81794434 238.16628906 -118.61635742 237.94585937 -119.43896484 237.71875 C-142.61629596 231.11786007 -161.51253515 219.87755421 -179.01953125 203.38671875 C-179.74527344 202.73703125 -180.47101563 202.08734375 -181.21875 201.41796875 C-198.82922241 184.97731228 -209.63892902 162.25395915 -216.01953125 139.38671875 C-216.21305176 138.70270996 -216.40657227 138.01870117 -216.60595703 137.31396484 C-221.73419425 118.09899386 -221.40537114 92.48566607 -216.01953125 73.38671875 C-215.68888672 72.18909912 -215.68888672 72.18909912 -215.3515625 70.96728516 C-208.75430655 47.80271382 -197.52083092 28.87230647 -181.01953125 11.38671875 C-180.34664062 10.649375 -179.67375 9.91203125 -178.98046875 9.15234375 C-164.99410784 -5.61976778 -145.71041313 -17.4461704 -126.01953125 -22.61328125 C-125.24899414 -22.81791992 -124.47845703 -23.02255859 -123.68457031 -23.23339844 C-80.33621962 -34.670054 -35.59606885 -28.49559925 0 0 Z M-166.20703125 40.07421875 C-184.22761867 62.44060699 -191.51077841 89.98919925 -189.01953125 118.38671875 C-185.27426937 145.77336825 -171.69597246 171.48861008 -149.96875 188.8203125 C-137.82665195 198.0085948 -124.76915146 204.53170438 -110.01953125 208.38671875 C-109.10171875 208.68449219 -108.18390625 208.98226562 -107.23828125 209.2890625 C-84.93361516 215.79459011 -58.56869976 211.58451239 -38.01953125 201.38671875 C-37.12621094 200.95875 -36.23289063 200.53078125 -35.3125 200.08984375 C-11.4872713 187.95567863 7.29305096 166.30523873 15.79003906 140.97314453 C24.80059949 111.86521728 22.58288662 82.84865095 8.73046875 55.69921875 C-5.10832924 31.14749161 -27.254264 12.98680087 -54.32910156 5.10668945 C-96.65581292 -6.59616821 -137.66344417 7.6223559 -166.20703125 40.07421875 Z " fill="#FE6C6C" transform="translate(219.01953125,270.61328125)"/>
<path d="M0 0 C0 9.9 0 19.8 0 30 C-4.95 30 -9.9 30 -15 30 C-15 59.7 -15 89.4 -15 120 C-10.05 120 -5.1 120 0 120 C0 149.7 0 179.4 0 210 C-8.61965783 210 -15.26164765 209.99122509 -23.3125 207.9375 C-24.65852295 207.60141724 -24.65852295 207.60141724 -26.03173828 207.25854492 C-53.08352114 200.16965962 -77.05133103 182.52767606 -91.25 158.25 C-95.38429772 150.83348824 -98.48041554 143.09866432 -101 135 C-101.21172852 134.32018066 -101.42345703 133.64036133 -101.64160156 132.93994141 C-109.42447086 106.71130183 -105.41890421 79.0616269 -93 55 C-79.77776426 31.15712582 -58.31574253 12.98974009 -32.3125 4.6875 C-30.21371972 4.10522434 -28.10943088 3.54242508 -26 3 C-24.93136719 2.70222656 -23.86273438 2.40445312 -22.76171875 2.09765625 C-14.60056366 -0.02326669 -9.07281614 0 0 0 Z " fill="#EDF4FE" transform="translate(135,272)"/>
<path d="M0 0 C16.54656185 0 16.54656185 0 22.5625 1.0625 C23.67540405 1.25767212 23.67540405 1.25767212 24.81079102 1.45678711 C59.09561257 8.00501374 91.0870548 28.14640306 111 57 C112.73365093 59.62868812 114.38435923 62.29741391 116 65 C116.40154297 65.66435059 116.80308594 66.32870117 117.21679688 67.01318359 C123.9594927 78.37030943 128.46205315 90.29773544 132 103 C132.19352051 103.68932617 132.38704102 104.37865234 132.58642578 105.08886719 C137.61734597 124.12659956 137.29441417 149.07868763 132 168 C131.66935547 169.19979492 131.66935547 169.19979492 131.33203125 170.42382812 C124.73057159 193.59879364 113.4892531 212.49468377 97 230 C96.3503125 230.72574219 95.700625 231.45148438 95.03125 232.19921875 C75.06336414 253.58789649 42.97617548 268.68465184 13.71679688 270.11132812 C9.12744159 270.23078238 4.59795021 270.12426892 0 270 C0 260.1 0 250.2 0 240 C2.701875 239.79375 5.40375 239.5875 8.1875 239.375 C36.78846932 236.59070202 62.79794472 223.73645217 81.26904297 201.47021484 C100.15384922 177.82309093 106.28631213 149.36395314 103.79785156 119.58056641 C100.53787584 93.6176277 85.10363128 68.61177131 64.85546875 52.44140625 C45.52288297 37.62163047 23.91746959 31.96337437 0 30 C0 20.1 0 10.2 0 0 Z " fill="#E63A50" transform="translate(135,242)"/>
<path d="M0 0 C9.9 0 19.8 0 30 0 C30 19.8 30 39.6 30 60 C39.9 60 49.8 60 60 60 C60 69.9 60 79.8 60 90 C40.2 90 20.4 90 0 90 C0 60.3 0 30.6 0 0 Z " fill="#47568C" transform="translate(120,302)"/>
<path d="M0 0 C19.8 0 39.6 0 60 0 C60 9.9 60 19.8 60 30 C40.2 30 20.4 30 0 30 C0 20.1 0 10.2 0 0 Z " fill="#47568C" transform="translate(360,302)"/>
<path d="M0 0 C19.8 0 39.6 0 60 0 C60 9.9 60 19.8 60 30 C40.2 30 20.4 30 0 30 C0 20.1 0 10.2 0 0 Z " fill="#47568C" transform="translate(360,242)"/>
<path d="M0 0 C19.8 0 39.6 0 60 0 C60 9.9 60 19.8 60 30 C40.2 30 20.4 30 0 30 C0 20.1 0 10.2 0 0 Z " fill="#47568C" transform="translate(270,242)"/>
<path d="M0 0 C19.8 0 39.6 0 60 0 C60 9.9 60 19.8 60 30 C40.2 30 20.4 30 0 30 C0 20.1 0 10.2 0 0 Z " fill="#47568C" transform="translate(360,182)"/>
<path d="M0 0 C19.8 0 39.6 0 60 0 C60 9.9 60 19.8 60 30 C40.2 30 20.4 30 0 30 C0 20.1 0 10.2 0 0 Z " fill="#47568C" transform="translate(270,182)"/>
<path d="M0 0 C19.8 0 39.6 0 60 0 C60 9.9 60 19.8 60 30 C40.2 30 20.4 30 0 30 C0 20.1 0 10.2 0 0 Z " fill="#61729B" transform="translate(180,182)"/>
<path d="M0 0 C4.95 0 9.9 0 15 0 C15 29.7 15 59.4 15 90 C10.05 90 5.1 90 0 90 C0 60.3 0 30.6 0 0 Z " fill="#61729B" transform="translate(120,302)"/>
<path d="M0 0 C9.9 0 19.8 0 30 0 C30 9.9 30 19.8 30 30 C20.1 30 10.2 30 0 30 C0 20.1 0 10.2 0 0 Z " fill="#61729B" transform="translate(270,242)"/>
<path d="M0 0 C9.9 0 19.8 0 30 0 C30 9.9 30 19.8 30 30 C20.1 30 10.2 30 0 30 C0 20.1 0 10.2 0 0 Z " fill="#61729B" transform="translate(270,182)"/>
<path d="M0 0 C9.9 0 19.8 0 30 0 C30 9.9 30 19.8 30 30 C20.1 30 10.2 30 0 30 C0 20.1 0 10.2 0 0 Z " fill="#47568C" transform="translate(390,60)"/>
<path d="M0 0 C9.9 0 19.8 0 30 0 C30 9.9 30 19.8 30 30 C20.1 30 10.2 30 0 30 C0 20.1 0 10.2 0 0 Z " fill="#61729B" transform="translate(180,60)"/>
</svg>
